<svg width="64" height="64" viewBox="0 0 64 64" fill="none" xmlns="http://www.w3.org/2000/svg">
<g clip-path="url(#clip0_2563_39464)">
<path d="M58.7092 63.0653H55.9852C55.7918 63.0653 55.6063 62.9884 55.4695 62.8517C55.3328 62.7149 55.2559 62.5294 55.2559 62.336V58.8828H59.4384V62.336C59.4384 62.4317 59.4196 62.5266 59.3829 62.6151C59.3463 62.7036 59.2926 62.784 59.2249 62.8517C59.1572 62.9194 59.0768 62.9732 58.9883 63.0098C58.8998 63.0464 58.805 63.0653 58.7092 63.0653ZM7.98842 63.0653H5.26449C5.07106 63.0653 4.88555 62.9884 4.74877 62.8517C4.612 62.7149 4.53516 62.5294 4.53516 62.336V58.8828H8.71763V62.336C8.71765 62.4317 8.6988 62.5266 8.66216 62.615C8.62552 62.7035 8.57181 62.7839 8.50409 62.8517C8.43638 62.9194 8.35599 62.9731 8.26751 63.0098C8.17903 63.0464 8.0842 63.0653 7.98842 63.0653Z" fill="#CDBBFA"/>
<path d="M59.4383 58.8828V62.336C59.4383 62.5293 59.3615 62.7148 59.2248 62.8515C59.088 62.9882 58.9026 63.065 58.7092 63.065H56.678C56.8714 63.065 57.0568 62.9882 57.1936 62.8515C57.3303 62.7148 57.4071 62.5293 57.4071 62.336V58.8828H59.4383ZM8.7173 58.8828V62.336C8.7173 62.7392 8.39146 63.065 7.98822 63.065H5.95703C6.1504 63.065 6.33584 62.9882 6.47257 62.8515C6.6093 62.7148 6.68611 62.5293 6.68611 62.336V58.8828H8.7173Z" fill="#CDBBFA"/>
<path d="M62.5786 58.8822H1.39829C1.27608 58.8822 1.15888 58.8337 1.07246 58.7473C0.986048 58.6608 0.9375 58.5436 0.9375 58.4214V55.703C0.9375 55.5808 0.986048 55.4636 1.07246 55.3772C1.15888 55.2907 1.27608 55.2422 1.39829 55.2422H62.5786C62.7008 55.2422 62.818 55.2907 62.9044 55.3772C62.9908 55.4636 63.0394 55.5808 63.0394 55.703V58.4214C63.0394 58.5436 62.9908 58.6608 62.9044 58.7472C62.818 58.8336 62.7008 58.8822 62.5786 58.8822Z" fill="#CDBBFA"/>
<path d="M63.0396 55.7029V58.4219C63.0396 58.6766 62.8336 58.8826 62.5789 58.8826H60.082C60.3367 58.8826 60.5427 58.6766 60.5427 58.4219V55.7029C60.5427 55.4482 60.3367 55.2422 60.082 55.2422H62.5789C62.8336 55.2422 63.0396 55.4482 63.0396 55.7029Z" fill="#CDBBFA"/>
<path d="M59.1403 55.2379H31.9883V28.0859H58.1794C58.4342 28.0859 58.6786 28.1872 58.8588 28.3674C59.039 28.5476 59.1403 28.792 59.1403 29.0469V55.2379Z" fill="#EEEFF1"/>
<path d="M59.1388 29.0499V55.2418H56.6866V29.0499C56.6864 28.7953 56.5852 28.5512 56.4052 28.3712C56.2252 28.1912 55.9811 28.09 55.7266 28.0898H58.1787C58.4333 28.09 58.6774 28.1912 58.8574 28.3712C59.0374 28.5512 59.1386 28.7953 59.1388 29.0499Z" fill="#EEEFF1"/>
<path d="M45.5618 28.0859H42.3203V35.2961C42.3203 35.7231 42.7719 35.999 43.1518 35.8042L45.3013 34.7023C45.3819 34.661 45.4712 34.6395 45.5618 34.6395C45.6524 34.6395 45.7416 34.661 45.8223 34.7023L47.9718 35.8042C48.3518 35.999 48.8033 35.7231 48.8033 35.2961V28.0859H45.5618Z" fill="#CDBBFA"/>
<path d="M48.8038 28.0898V35.2992C48.8038 35.726 48.3514 36.003 47.9713 35.8081L46.3516 34.978V28.0898H48.8038Z" fill="#E6E1F8"/>
<path d="M50.1349 50.674H40.9877C40.8418 50.674 40.7018 50.616 40.5986 50.5128C40.4955 50.4097 40.4375 50.2697 40.4375 50.1238V46.1986C40.4375 46.0527 40.4955 45.9128 40.5986 45.8096C40.7018 45.7064 40.8418 45.6484 40.9877 45.6484H50.1349C50.2808 45.6484 50.4207 45.7064 50.5239 45.8096C50.6271 45.9128 50.6851 46.0527 50.6851 46.1986V50.1238C50.6851 50.196 50.6709 50.2676 50.6432 50.3344C50.6156 50.4011 50.5751 50.4618 50.524 50.5129C50.4729 50.564 50.4122 50.6045 50.3455 50.6321C50.2787 50.6598 50.2071 50.674 50.1349 50.674Z" fill="#CDBBFA"/>
<path d="M50.6872 46.199V50.1238C50.6872 50.2698 50.6292 50.4098 50.526 50.5131C50.4227 50.6163 50.2827 50.6743 50.1367 50.6743H47.6367C47.7827 50.6743 47.9228 50.6163 48.026 50.5131C48.1293 50.4098 48.1873 50.2698 48.1873 50.1238V46.199C48.1873 46.053 48.1293 45.9129 48.026 45.8097C47.9228 45.7064 47.7827 45.6484 47.6367 45.6484H50.1367C50.2827 45.6484 50.4227 45.7064 50.526 45.8097C50.6292 45.9129 50.6872 46.053 50.6872 46.199Z" fill="#E6E1F8"/>
<path d="M45.5621 28.0895H18.4102V1.89754C18.4102 1.64292 18.5113 1.39873 18.6913 1.21869C18.8714 1.03865 19.1156 0.9375 19.3702 0.9375H44.6012C44.8561 0.9375 45.1005 1.03874 45.2807 1.21894C45.4609 1.39915 45.5621 1.64356 45.5621 1.89841V28.0895Z" fill="#EEEFF1"/>
<path d="M45.5606 1.89754V28.0895H43.1085V1.89754C43.1083 1.64297 43.0071 1.39888 42.8271 1.21887C42.6471 1.03887 42.403 0.937665 42.1484 0.9375H44.6006C44.8552 0.937665 45.0993 1.03887 45.2793 1.21887C45.4593 1.39888 45.5605 1.64297 45.5606 1.89754Z" fill="#EEEFF1"/>
<path d="M31.9876 0.9375H28.7461V8.14765C28.7461 8.57461 29.1976 8.85052 29.5775 8.65576L31.7271 7.5539C31.8077 7.51261 31.897 7.49108 31.9876 7.49108C32.0781 7.49108 32.1674 7.51261 32.248 7.5539L34.3976 8.65576C34.7776 8.85052 35.229 8.57461 35.229 8.14765V0.9375H31.9876Z" fill="#CDBBFA"/>
<path d="M35.2296 0.9375V8.1469C35.2296 8.57361 34.7772 8.85064 34.3971 8.65576L32.7773 7.82568V0.9375H35.2296Z" fill="#E6E1F8"/>
<path d="M36.5607 23.5255H27.4135C27.3412 23.5255 27.2697 23.5113 27.2029 23.4837C27.1362 23.456 27.0755 23.4155 27.0244 23.3644C26.9733 23.3133 26.9328 23.2526 26.9052 23.1859C26.8775 23.1191 26.8633 23.0476 26.8633 22.9754V19.0502C26.8633 18.9043 26.9212 18.7643 27.0244 18.6611C27.1276 18.558 27.2675 18.5 27.4135 18.5H36.5607C36.7066 18.5 36.8465 18.558 36.9497 18.6611C37.0529 18.7643 37.1109 18.9043 37.1109 19.0502V22.9754C37.1109 23.0476 37.0966 23.1191 37.069 23.1859C37.0413 23.2526 37.0008 23.3133 36.9497 23.3644C36.8986 23.4155 36.838 23.456 36.7712 23.4837C36.7045 23.5113 36.6329 23.5255 36.5607 23.5255Z" fill="#CDBBFA"/>
<path d="M37.113 19.0466V22.9713C37.113 23.1173 37.055 23.2574 36.9518 23.3606C36.8485 23.4639 36.7085 23.5219 36.5625 23.5219H34.0625C34.2085 23.5219 34.3486 23.4639 34.4518 23.3606C34.5551 23.2574 34.6131 23.1173 34.6131 22.9713V19.0466C34.6131 18.9006 34.5551 18.7606 34.4518 18.6573C34.3486 18.5541 34.2085 18.4961 34.0625 18.4961H36.5625C36.7085 18.4961 36.8485 18.5541 36.9518 18.6573C37.055 18.7606 37.113 18.9006 37.113 19.0466Z" fill="#E6E1F8"/>
<path d="M31.9879 55.2379H4.83594V29.0469C4.83594 28.9207 4.86079 28.7957 4.90908 28.6791C4.95737 28.5625 5.02815 28.4566 5.11738 28.3674C5.20661 28.2782 5.31254 28.2074 5.42912 28.1591C5.54571 28.1108 5.67066 28.0859 5.79685 28.0859H31.9879V55.2379Z" fill="#EEEFF1"/>
<path d="M31.9864 28.0898V55.2418H29.5343V29.0499C29.5341 28.7953 29.4329 28.5512 29.2529 28.3712C29.0729 28.1912 28.8288 28.09 28.5742 28.0898H31.9864Z" fill="#EEEFF1"/>
<path d="M18.4095 28.0859H15.168V35.2961C15.168 35.7231 15.6195 35.999 15.9994 35.8042L18.149 34.7023C18.2296 34.661 18.3189 34.6395 18.4094 34.6395C18.5 34.6395 18.5893 34.661 18.6699 34.7023L20.8195 35.8042C21.1995 35.999 21.6509 35.7231 21.6509 35.2961V28.0859H18.4095Z" fill="#CDBBFA"/>
<path d="M21.6515 28.0898V35.2992C21.6515 35.726 21.1991 36.003 20.8189 35.8081L19.1992 34.978V28.0898H21.6515Z" fill="#E6E1F8"/>
<path d="M22.9825 50.674H13.8353C13.6894 50.674 13.5495 50.616 13.4463 50.5128C13.3431 50.4097 13.2852 50.2697 13.2852 50.1238V46.1986C13.2852 46.0527 13.3431 45.9128 13.4463 45.8096C13.5495 45.7064 13.6894 45.6484 13.8353 45.6484H22.9825C23.1285 45.6484 23.2684 45.7064 23.3716 45.8096C23.4748 45.9128 23.5327 46.0527 23.5327 46.1986V50.1238C23.5327 50.2697 23.4748 50.4097 23.3716 50.5128C23.2684 50.616 23.1285 50.674 22.9825 50.674Z" fill="#CDBBFA"/>
<path d="M23.5349 46.199V50.1238C23.5349 50.2698 23.4769 50.4098 23.3736 50.5131C23.2704 50.6163 23.1304 50.6743 22.9843 50.6743H20.4844C20.6304 50.6743 20.7704 50.6163 20.8737 50.5131C20.9769 50.4098 21.0349 50.2698 21.0349 50.1238V46.199C21.0349 46.053 20.9769 45.9129 20.8737 45.8097C20.7704 45.7064 20.6304 45.6484 20.4844 45.6484H22.9843C23.1304 45.6484 23.2704 45.7064 23.3736 45.8097C23.4769 45.9129 23.5349 46.053 23.5349 46.199Z" fill="#E6E1F8"/>
<path d="M36.5613 24.4607C37.3809 24.4607 38.0478 23.7938 38.0478 22.974V19.049C38.0478 18.2293 37.3809 17.5625 36.5613 17.5625H27.4141C26.5943 17.5625 25.9274 18.2293 25.9274 19.049V22.974C25.9274 23.7938 26.5943 24.4607 27.4141 24.4607H36.5613ZM27.8001 19.4351H36.175V22.588H27.8001V19.4351ZM40.9899 44.7149C40.1703 44.7149 39.5034 45.3817 39.5034 46.2014V50.1265C39.5034 50.9461 40.1703 51.613 40.9899 51.613H50.1373C50.9569 51.613 51.6238 50.9461 51.6238 50.1265V46.2014C51.6238 45.3817 50.9569 44.7149 50.1373 44.7149H40.9899ZM49.7511 49.7404H41.3761V46.5875H49.7511V49.7404ZM22.9853 44.7149H13.8381C13.0183 44.7149 12.3516 45.3817 12.3516 46.2014V50.1265C12.3516 50.9461 13.0183 51.613 13.8381 51.613H22.9853C23.8049 51.613 24.4718 50.9461 24.4718 50.1265V46.2014C24.4718 45.3817 23.8049 44.7149 22.9853 44.7149ZM22.5991 49.7404H14.2242V46.5875H22.5991V49.7404Z" fill="#2B2171"/>
<path d="M62.5774 54.3049H60.0755V50.6752C60.0755 50.1581 59.6564 49.7389 59.1391 49.7389C58.6219 49.7389 58.2028 50.1581 58.2028 50.6752V54.3044H32.9236V29.0251H41.3854V35.299C41.3854 35.8283 41.6551 36.3091 42.1066 36.5851C42.5582 36.8611 43.1092 36.8816 43.5803 36.6403L45.5633 35.6238L47.5461 36.6403C47.759 36.75 47.995 36.8074 48.2345 36.8077C48.5064 36.8077 48.7775 36.7332 49.0198 36.585C49.2408 36.4511 49.4233 36.2622 49.5497 36.0368C49.6761 35.8115 49.742 35.5572 49.741 35.2988V29.025H58.1783C58.1918 29.025 58.2028 29.036 58.2028 29.0496V46.4216C58.2028 46.9387 58.6219 47.3579 59.1391 47.3579C59.6564 47.3579 60.0755 46.9387 60.0755 46.4216V29.0496C60.0755 28.0035 59.2244 27.1524 58.1783 27.1524H46.4996V1.89636C46.4996 0.850677 45.6489 0 44.6032 0H19.3722C18.3261 0 17.475 0.851051 17.475 1.89723V6.59156C17.475 6.83989 17.5736 7.07804 17.7492 7.25364C17.9248 7.42923 18.1629 7.52788 18.4113 7.52788C18.6596 7.52788 18.8978 7.42923 19.0733 7.25364C19.2489 7.07804 19.3476 6.83989 19.3476 6.59156V1.89723C19.3476 1.88375 19.3586 1.87264 19.3722 1.87264H27.8094V8.1466C27.8094 8.67593 28.0791 9.1567 28.5308 9.43272C28.7669 9.57797 29.0386 9.65506 29.3159 9.65544C29.5506 9.65544 29.7862 9.59976 30.0044 9.4879L31.9873 8.47144L33.97 9.48778C34.4412 9.72923 34.9921 9.70888 35.4437 9.43272C35.6647 9.29885 35.8474 9.11002 35.9738 8.88461C36.1002 8.65921 36.1661 8.40491 36.1651 8.14647V1.87264H44.6032C44.6095 1.87264 44.6156 1.87514 44.62 1.87958C44.6244 1.88403 44.6269 1.89007 44.6269 1.89636V27.152H19.3476V10.8451C19.3476 10.5967 19.2489 10.3586 19.0733 10.183C18.8978 10.0074 18.6596 9.90875 18.4113 9.90875C18.1629 9.90875 17.9248 10.0074 17.7492 10.183C17.5736 10.3586 17.475 10.5967 17.475 10.8451V27.1525H5.79619C4.75013 27.1525 3.89896 28.0035 3.89896 29.0497V54.3049H1.39711C0.626709 54.3049 0 54.9316 0 55.702V58.4204C0 59.1908 0.626709 59.8175 1.39711 59.8175H3.59933V62.3344C3.59933 63.2527 4.34652 64 5.26486 64H7.9888C8.90714 64 9.65444 63.2528 9.65444 62.3344V59.8175H54.3202V62.3344C54.3202 63.2527 55.0674 64 55.9859 64H58.7097C59.628 64 60.3753 63.2528 60.3753 62.3344V59.8175H62.5775C63.3478 59.8175 63.9745 59.1908 63.9745 58.4204V55.702C63.9744 54.9316 63.3477 54.3049 62.5774 54.3049ZM34.2925 7.54873L32.6748 6.71952C32.4619 6.61078 32.2263 6.55408 31.9872 6.55408C31.7482 6.55408 31.5125 6.61078 31.2996 6.71952L29.6821 7.54873V1.87264H34.2925V7.54873ZM43.258 29.0251H47.8684V34.7012L46.2509 33.872C46.038 33.7632 45.8023 33.7064 45.5633 33.7064C45.3242 33.7064 45.0885 33.7632 44.8756 33.872L43.258 34.7012V29.0251ZM16.1061 29.0251H20.7164V34.7012L19.0987 33.872C18.8858 33.7632 18.6501 33.7065 18.4111 33.7065C18.172 33.7065 17.9364 33.7632 17.7235 33.872L16.1059 34.7012V29.0251H16.1061ZM5.77159 29.0496C5.77159 29.0361 5.78258 29.025 5.79619 29.025H14.2334V35.2988C14.2334 35.8282 14.5031 36.3089 14.9546 36.585C15.1746 36.7206 15.426 36.797 15.6842 36.8067C15.9425 36.8163 16.1989 36.759 16.4284 36.6401L18.4113 35.6237L20.3941 36.6401C20.607 36.7498 20.843 36.8072 21.0825 36.8076C21.3544 36.8076 21.6253 36.733 21.8678 36.5848C22.0888 36.451 22.2714 36.2621 22.3978 36.0368C22.5242 35.8114 22.5901 35.5571 22.5891 35.2987V29.0249H31.0509V54.3041H5.77159V29.0496ZM7.78181 62.1274H5.47197V59.8175H7.78181V62.1274ZM58.5026 62.1274H56.1927V59.8175H58.5026V62.1274ZM62.1018 57.9449H1.87264V56.1775H62.1018V57.9449Z" fill="#2B2171"/>
</g>
<defs>
<clipPath id="clip0_2563_39464">
<rect width="64" height="64" fill="white"/>
</clipPath>
</defs>
</svg>
