<svg width="64" height="64" viewBox="0 0 64 64" fill="none" xmlns="http://www.w3.org/2000/svg">
<path fill-rule="evenodd" clip-rule="evenodd" d="M15 31.5H21L26 40L26.5 16.5L27.5 12.5L31 9.5H38.5L55 20L59.5 26.5L60 57.5L57.5 60H29L26.5 58.5L26 60H10.5V44L13.5 41L15 40L15.5 38.5L13.5 37.5V35L15 33.5V31.5ZM42.5 21.5V30L50.5 38L56.5 38.5L56 30.5L53 24L47 19.5L44 19L42.5 21.5Z" fill="#EEEFF1"/>
<path d="M10.4844 46.0312H26.3876V56.3216H10.4844V46.0312Z" fill="#CDBBFA"/>
<path d="M7.2098 24.5154L7.67755 20.7734L11.8872 21.2412L9.08077 25.9186L4.87109 26.8541L7.2098 24.5154Z" fill="#CDBBFA"/>
<path d="M12.3551 20.7732H6.74219V17.0312H18.4357L25.4519 22.6442L20.7744 24.5151V27.3216H15.1615L12.3551 20.7732Z" fill="#E6E1F8"/>
<path d="M22.6459 31.0662H13.291V27.3242H22.6459V31.0662Z" fill="#CDBBFA"/>
<rect x="26.3867" y="42.2891" width="33.6774" height="13.0968" fill="#CDBBFA"/>
<path d="M34.8064 27.3235C36.873 27.3235 38.5483 24.8105 38.5483 21.7106C38.5483 18.6106 36.873 16.0977 34.8064 16.0977C32.7398 16.0977 31.0645 18.6106 31.0645 21.7106C31.0645 24.8105 32.7398 27.3235 34.8064 27.3235Z" fill="#E6E1F8"/>
<path d="M31.0645 3.93359H38.5483V9.5465H31.0645V3.93359Z" fill="#CDBBFA"/>
<path d="M52.5601 16.9817L39.4839 9.02265V3.93548C39.4839 3.68738 39.3853 3.44943 39.2099 3.274C39.0344 3.09856 38.7965 3 38.5484 3H31.0645C30.8164 3 30.5785 3.09856 30.403 3.274C30.2276 3.44943 30.129 3.68738 30.129 3.93548V9.03481C28.693 10.0052 27.5161 11.312 26.7008 12.8415C25.8856 14.3709 25.4567 16.0765 25.4516 17.8096V20.7742L19.4645 16.2839C19.3026 16.1624 19.1056 16.0968 18.9032 16.0968H6.74194C6.49383 16.0968 6.25589 16.1953 6.08045 16.3708C5.90501 16.5462 5.80645 16.7842 5.80645 17.0323V20.7742C5.80775 21.0081 5.89733 21.2329 6.05726 21.4035C6.21718 21.5742 6.43566 21.6782 6.66897 21.6947C6.42261 23.4135 5.50744 24.9655 4.12258 26.0129L3.37419 26.5742C3.21712 26.692 3.10109 26.8562 3.04255 27.0436C2.98401 27.2311 2.98592 27.4321 3.04801 27.6184C3.11009 27.8047 3.22922 27.9667 3.3885 28.0815C3.54778 28.1963 3.73914 28.2581 3.93548 28.2581H4.87097C6.53628 28.255 8.15309 27.6971 9.46589 26.6725C10.7787 25.6479 11.7126 24.215 12.12 22.6003L13.7431 26.3871H13.2903C13.0422 26.3871 12.8043 26.4857 12.6288 26.6611C12.4534 26.8365 12.3548 27.0745 12.3548 27.3226V31.0645C12.3548 31.3126 12.4534 31.5506 12.6288 31.726C12.8043 31.9014 13.0422 32 13.2903 32H14.2258V33.1825C14.2258 33.2156 14.2166 33.2481 14.1993 33.2763C14.1819 33.3045 14.1571 33.3274 14.1276 33.3424C13.5951 33.6086 13.1473 34.0177 12.8343 34.5241C12.5213 35.0304 12.3556 35.6139 12.3556 36.2092C12.3556 36.8045 12.5213 37.388 12.8343 37.8943C13.1473 38.4007 13.5951 38.8099 14.1276 39.076C14.1573 39.0911 14.1823 39.1141 14.1998 39.1425C14.2173 39.1709 14.2266 39.2036 14.2267 39.2369C14.226 39.4361 14.174 39.6317 14.0757 39.8049C13.9774 39.9781 13.8361 40.123 13.6655 40.2257L12.4082 40.9797C11.5378 41.5055 10.8175 42.2465 10.3166 43.1315C9.8157 44.0164 9.55114 45.0154 9.54839 46.0323V60.0645C9.54839 60.3126 9.64695 60.5506 9.82238 60.726C9.99782 60.9014 10.2358 61 10.4839 61H26.3871C26.6352 61 26.8731 60.9014 27.0486 60.726C27.224 60.5506 27.3226 60.3126 27.3226 60.0645V60.0402C28.1275 60.6593 29.1136 60.9966 30.129 61H56.3226C57.5627 60.9985 58.7515 60.5052 59.6284 59.6284C60.5052 58.7515 60.9985 57.5627 61 56.3226V32C60.9905 28.9848 60.2101 26.022 58.7329 23.3934C57.2557 20.7648 55.1307 18.5576 52.5601 16.9817ZM32 4.87097H37.6129V8.6129H32V4.87097ZM25.4516 46.9677V55.3871H11.4194V46.9677H25.4516ZM27.3226 43.2258H59.129V54.4516H27.3226V43.2258ZM25.4516 36.1769C24.7573 34.6683 23.8774 33.2522 22.8323 31.9616C23.0414 31.9215 23.2302 31.8102 23.3666 31.6467C23.503 31.4831 23.5786 31.2775 23.5806 31.0645V27.3226C23.5806 27.0745 23.4821 26.8365 23.3066 26.6611C23.1312 26.4857 22.8933 26.3871 22.6452 26.3871H21.7097V25.1906L25.4516 23.9427V36.1769ZM14.2258 30.129V28.2581H21.7097V30.129H14.2258ZM6.74194 26.0681C7.74606 24.8159 8.37439 23.3046 8.55397 21.7097H10.4025C10.2348 22.6959 9.8072 23.6197 9.1638 24.3857C8.52039 25.1518 7.6844 25.7325 6.74194 26.0681ZM13.2192 20.4056C13.1468 20.2366 13.0262 20.0928 12.8724 19.9919C12.7187 19.8911 12.5387 19.8378 12.3548 19.8387H7.67742V17.9677H18.5917L24.3973 22.3224L20.4786 23.6321C20.2928 23.694 20.1312 23.8125 20.0164 23.9711C19.9016 24.1297 19.8394 24.3204 19.8387 24.5161V26.3871H15.7778L13.2192 20.4056ZM13.3755 42.5831L14.6337 41.8347C15.0801 41.5638 15.4492 41.1824 15.7054 40.7274C15.9617 40.2724 16.0964 39.7591 16.0968 39.2369C16.0979 38.856 15.9924 38.4824 15.7922 38.1583C15.592 37.8343 15.3051 37.5728 14.9639 37.4034C14.7421 37.2925 14.5555 37.1221 14.4251 36.9112C14.2947 36.7002 14.2257 36.4572 14.2257 36.2092C14.2257 35.9612 14.2947 35.7182 14.4251 35.5073C14.5555 35.2963 14.7421 35.1259 14.9639 35.0151C15.305 34.8458 15.5919 34.5845 15.7921 34.2606C15.9923 33.9367 16.0979 33.5632 16.0968 33.1825V32H20.3616C23.6345 35.3825 25.4603 39.9074 25.4516 44.6141V45.0968H11.5363C11.661 44.5774 11.8873 44.0879 12.2021 43.6565C12.517 43.2251 12.9142 42.8603 13.3708 42.5831H13.3755ZM11.4194 59.129V57.2581H25.4516V59.129H11.4194ZM56.3226 59.129H30.129C29.3847 59.129 28.6709 58.8334 28.1446 58.307C27.6183 57.7807 27.3226 57.0669 27.3226 56.3226H59.129C59.129 57.0669 58.8334 57.7807 58.307 58.307C57.7807 58.8334 57.0669 59.129 56.3226 59.129ZM59.129 41.3548H27.3226V17.8096C27.3268 16.3511 27.6958 14.9169 28.3959 13.6374C29.096 12.3579 30.1051 11.2738 31.3311 10.4839H38.2865L51.5872 18.5805C53.884 19.9888 55.7826 21.9611 57.1026 24.3098C58.4226 26.6585 59.1202 29.3058 59.129 32V41.3548Z" fill="#2B2171"/>
<path d="M50.5112 20.643L47.2464 18.5663C46.6666 18.198 45.9986 17.9923 45.3121 17.9705C44.6256 17.9486 43.9458 18.1115 43.3438 18.4422C42.7418 18.7728 42.2396 19.2591 41.8897 19.8501C41.5398 20.4411 41.3551 21.1153 41.3547 21.8021V28.2569C41.3588 29.7021 41.9326 31.0873 42.9516 32.1121L48.7254 37.8859C49.2304 38.3938 49.8312 38.7965 50.4929 39.0707C51.1547 39.3448 51.8642 39.4848 52.5805 39.4827H56.3225C56.5706 39.4827 56.8085 39.3842 56.9839 39.2087C57.1594 39.0333 57.2579 38.7954 57.2579 38.5473V32.9343C57.2644 30.4823 56.6489 28.0686 55.469 25.919C54.2891 23.7694 52.5833 21.9542 50.5112 20.643ZM55.387 37.6118H52.5805C52.11 37.6133 51.6439 37.5213 51.2092 37.3413C50.7745 37.1613 50.3799 36.8968 50.0482 36.5631L44.2744 30.7893C43.6053 30.116 43.2285 29.2061 43.2257 28.2569V21.8021C43.2263 21.4507 43.3212 21.1059 43.5005 20.8036C43.6797 20.5014 43.9367 20.2528 44.2448 20.0837C44.5528 19.9145 44.9006 19.8311 45.2518 19.8422C45.603 19.8532 45.9449 19.9582 46.2417 20.1463L49.5065 22.224C51.3123 23.3664 52.7989 24.9481 53.8273 26.8212C54.8557 28.6943 55.3923 30.7975 55.387 32.9343V37.6118ZM34.8063 15.1602C32.187 15.1602 30.1289 18.0368 30.1289 21.7085C30.1289 25.3803 32.187 28.2569 34.8063 28.2569C37.4257 28.2569 39.4837 25.3803 39.4837 21.7085C39.4837 18.0368 37.4257 15.1602 34.8063 15.1602ZM34.8063 26.386C33.2852 26.386 31.9999 24.2437 31.9999 21.7085C31.9999 19.1734 33.2852 17.0311 34.8063 17.0311C36.3274 17.0311 37.6128 19.1734 37.6128 21.7085C37.6128 24.2437 36.3274 26.386 34.8063 26.386Z" fill="#2B2171"/>
</svg>
