<svg width="65" height="64" viewBox="0 0 65 64" fill="none" xmlns="http://www.w3.org/2000/svg">
<g clip-path="url(#clip0_2563_39516)">
<path d="M43.5 10H40.5L35 5.5L32.5 5L30 5.5L24 9.5L18.5 10L15 11L13 13.5L11.5 20L6.5 24.5L5 27.5L5.5 30L8.5 36.5L7.5 41.5L8 46L12.5 49.5L17 51.5L21.5 58L26 58.5L33 57.5L38.5 59L43.5 58L48.5 51.5L55.5 48.5L57 45.5L56.5 37L60 29.5L58.5 25L54 21.5L52.5 16L51.5 13L49 10.5L43.5 10Z" fill="#CDBBFA"/>
<circle cx="32.5" cy="31.5" r="17.5" fill="#E6E1F8"/>
<path d="M22.5 29.5L22 31.5L29 39.5H31.5L41 30L42.5 27.5L42 25.5L39 24.5L30 33L25 29L22.5 29.5Z" fill="#CDBBFA"/>
<path d="M59.9762 31.8727C61.3285 29.1973 60.7685 26.0216 58.5828 23.9701L55.4103 20.9924C54.6785 20.3058 54.2312 19.5308 54.0022 18.5535L53.0097 14.3174C52.3261 11.3987 49.8558 9.32582 46.8626 9.15936L42.5186 8.91771C41.5164 8.86196 40.6755 8.55587 39.8721 7.95456L36.389 5.3473C33.9894 3.55101 30.7644 3.55079 28.3645 5.3473L24.8814 7.95444C24.078 8.55587 23.237 8.86196 22.235 8.91771L17.8909 9.15936C14.8979 9.32582 12.4275 11.3987 11.7438 14.3174L10.7513 18.5536C10.5224 19.5308 10.075 20.3058 9.34332 20.9926L6.17074 23.9701C3.98496 26.0215 3.425 29.1973 4.7773 31.8727L6.74017 35.7555C7.19296 36.6513 7.34834 37.5325 7.22918 38.529L6.71275 42.8492C6.35708 45.8256 7.96942 48.6183 10.725 49.7985L14.7245 51.5114C15.647 51.9065 16.3325 52.4816 16.882 53.3215L19.2633 56.9629C20.9039 59.4716 23.9341 60.5746 26.8038 59.7074L30.9686 58.4487C31.9293 58.1583 32.8242 58.1584 33.7847 58.4487L37.9494 59.7074C38.5866 59.9008 39.2487 59.9994 39.9146 60C42.1257 59.9998 44.2226 58.9008 45.4899 56.9629L47.8714 53.3215C48.4207 52.4816 49.1063 51.9064 50.0287 51.5113L54.0283 49.7984C56.7839 48.6182 58.3963 45.8255 58.0405 42.8491L57.5241 38.5288C57.4049 37.5324 57.5603 36.6511 58.0131 35.7554L59.9762 31.8727ZM56.3819 34.931C55.7676 36.1463 55.5475 37.3942 55.7092 38.746L56.2256 43.0662C56.4883 45.2638 55.3434 47.2468 53.3088 48.1182L49.3093 49.8311C48.0577 50.3672 47.087 51.1817 46.3417 52.3211L43.9602 55.9625C42.7489 57.8147 40.5969 58.5978 38.4784 57.9576L34.3137 56.699C33.662 56.502 33.0195 56.4035 32.3768 56.4035C31.7342 56.4035 31.0914 56.502 30.4398 56.699L26.2751 57.9576C24.1566 58.5977 22.0047 57.8147 20.7933 55.9625L18.4119 52.3211C17.6665 51.1815 16.6957 50.367 15.4442 49.8311L11.4447 48.1182C9.41004 47.2469 8.26522 45.2638 8.52789 43.0662L9.04432 38.746C9.20599 37.3941 8.98593 36.1462 8.37159 34.9309L6.40873 31.048C5.41038 29.0727 5.80787 26.8178 7.42169 25.303L10.5943 22.3254C11.587 21.3937 12.2206 20.2963 12.5311 18.9705L13.5236 14.7343C14.0284 12.5794 15.7825 11.1075 17.9924 10.9847L22.3364 10.743C23.6959 10.6674 24.8867 10.2339 25.9767 9.41803L29.4599 6.81077C31.2317 5.48452 33.5217 5.48441 35.2935 6.81077L38.7766 9.41803C39.8667 10.2339 41.0576 10.6674 42.417 10.743L46.761 10.9847C48.971 11.1076 50.725 12.5794 51.2298 14.7345L52.2223 18.9705C52.5328 20.2964 53.1665 21.3938 54.1592 22.3254L57.3317 25.303C58.9455 26.8176 59.343 29.0727 58.3447 31.048L56.3819 34.931ZM32.3769 13.3129C22.0735 13.3129 13.6912 21.6952 13.6912 31.9986C13.6912 42.3019 22.0735 50.6842 32.3769 50.6842C42.6802 50.6842 51.0625 42.3019 51.0625 31.9986C51.0625 21.6952 42.6802 13.3129 32.3769 13.3129ZM32.3769 48.8562C23.0816 48.8562 15.5193 41.2939 15.5193 31.9986C15.5193 22.7033 23.0816 15.141 32.3769 15.141C41.6722 15.141 49.2345 22.7033 49.2345 31.9986C49.2345 41.2939 41.6722 48.8562 32.3769 48.8562ZM40.1567 23.529H40.1431C39.2298 23.5325 38.3732 23.8915 37.7315 24.5399L30.1518 32.195L27.0215 29.0645C26.375 28.4181 25.5154 28.0621 24.6009 28.0621C23.6863 28.0621 22.8268 28.4181 22.1802 29.0647C20.8456 30.3994 20.8456 32.5711 22.1802 33.9057L27.7399 39.4653C28.4073 40.1326 29.2838 40.4663 30.1605 40.4663C31.0371 40.4663 31.9138 40.1327 32.5812 39.4653C34.689 37.3574 36.8158 35.2001 38.8727 33.1139C40.1082 31.8597 41.3451 30.6071 42.5837 29.356C43.9092 28.0183 43.9023 25.8507 42.5681 24.524C41.9227 23.8819 41.0668 23.529 40.1567 23.529ZM41.2852 28.0692C40.0456 29.3214 38.8074 30.5752 37.5708 31.8304C35.5163 33.9144 33.3918 36.0693 31.2885 38.1726C30.6665 38.7946 29.6543 38.7946 29.0326 38.1726L23.473 32.6129C22.8511 31.991 22.8511 30.979 23.473 30.357C23.6208 30.2084 23.7966 30.0906 23.9902 30.0105C24.1838 29.9303 24.3914 29.8893 24.6009 29.8899C25.027 29.8899 25.4277 30.0558 25.7288 30.357L29.5087 34.1369C29.6801 34.3083 29.9126 34.4046 30.155 34.4046H30.1573C30.2777 34.4043 30.3968 34.3802 30.5079 34.3337C30.619 34.2873 30.7198 34.2193 30.8045 34.1337L39.0305 25.8258C39.1768 25.6774 39.3511 25.5595 39.5433 25.4789C39.7355 25.3984 39.9418 25.3569 40.1502 25.3568H40.1566C40.5804 25.3568 40.9788 25.5211 41.2792 25.8199C41.8998 26.4373 41.9025 27.4461 41.2852 28.0692Z" fill="#2B2171"/>
</g>
<defs>
<clipPath id="clip0_2563_39516">
<rect width="56.6597" height="56" fill="white" transform="translate(4.04688 4)"/>
</clipPath>
</defs>
</svg>
