<svg width="64" height="64" viewBox="0 0 64 64" fill="none" xmlns="http://www.w3.org/2000/svg">
<path d="M42.9171 61.705H21.0824C20.1827 61.7046 19.2981 61.4743 18.5124 61.0359C17.7267 60.5976 17.066 59.9658 16.5931 59.2004C16.1201 58.4351 15.8505 57.5616 15.8099 56.6628C15.7693 55.7641 15.9591 54.8698 16.3611 54.0649L25.7832 37.9757C26.5005 36.7482 26.8787 35.3521 26.879 33.9303V24.8359H37.1205V33.9303C37.1208 35.3521 37.4989 36.7482 38.2163 37.9757L47.6384 54.0649C48.0404 54.8698 48.2301 55.7641 48.1895 56.6628C48.149 57.5616 47.8794 58.4351 47.4064 59.2004C46.9335 59.9658 46.2728 60.5976 45.4871 61.0359C44.7014 61.4743 43.8168 61.7046 42.9171 61.705Z" fill="#EEEFF1"/>
<path d="M31.9997 24.8359V61.705H21.0824C20.1827 61.7046 19.2981 61.4743 18.5124 61.0359C17.7267 60.5976 17.066 59.9658 16.5931 59.2004C16.1201 58.4351 15.8505 57.5616 15.8099 56.6628C15.7693 55.7641 15.9591 54.8698 16.3611 54.0649L25.7832 37.9757C26.5005 36.7482 26.8787 35.3521 26.879 33.9303V24.8359H31.9997Z" fill="#EEEFF1"/>
<path d="M31.9988 12.6083C31.9988 9.80929 31.8544 5.55398 27.9022 3.391C22.5705 0.472192 16.6367 3.391 16.6367 3.391C16.6367 3.391 18.8939 9.93833 24.2727 12.7691C27.8582 14.6566 31.9988 12.6083 31.9988 12.6083Z" fill="#CDBBFA"/>
<path d="M27.9022 6.3267C29.0187 6.96003 29.9617 7.85898 30.6477 8.94388C31.3337 10.0288 31.7415 11.2661 31.8349 12.5463C31.9373 12.5013 31.9988 12.4716 31.9988 12.4716C31.9988 9.67257 31.8544 5.41829 27.9022 3.25428C22.5705 0.335474 16.6367 3.25428 16.6367 3.25428C16.9727 4.14872 17.3749 5.01687 17.84 5.8515C19.8402 5.16737 24.0258 4.20468 27.9022 6.3267Z" fill="#E6E1F8"/>
<path d="M31.9988 17.2778C31.9988 15.503 34.1126 11.5846 37.1195 10.3823C40.4301 9.19549 44.0502 9.19549 47.3609 10.3823C47.3609 10.3823 44.948 16.5579 39.1954 18.5201C37.9797 18.8676 36.7012 18.9364 35.4551 18.7213C34.2091 18.5062 33.0277 18.0128 31.9988 17.2778Z" fill="#CDBBFA"/>
<path d="M37.1195 12.8264C40.062 11.7467 43.2711 11.6277 46.2856 12.4864C46.6988 11.8253 47.0584 11.1321 47.3609 10.4135C44.0502 9.22674 40.4301 9.22674 37.1195 10.4135C34.1126 11.6169 31.9988 15.5342 31.9988 17.3091C32.1747 17.4362 32.3569 17.5545 32.5446 17.6634C33.431 15.5486 35.0573 13.8291 37.1195 12.8264Z" fill="#E6E1F8"/>
<path d="M42.9171 61.702H21.0824C20.1827 61.7015 19.2981 61.4712 18.5124 61.0329C17.7267 60.5945 17.066 59.9627 16.5931 59.1974C16.1201 58.432 15.8505 57.5585 15.8099 56.6598C15.7693 55.761 15.9591 54.8667 16.3611 54.0619L20.7137 46.6266C21.7003 47.0309 22.7437 47.2797 23.8066 47.364C25.8549 47.364 26.879 46.3398 28.9273 46.3398C29.9774 46.4493 31.0096 46.6901 31.9997 47.0567C32.6653 47.2522 33.3544 47.3555 34.048 47.364C36.0963 47.364 38.1446 46.3398 40.1929 46.3398C41.2495 46.3804 42.301 46.5071 43.337 46.7188L47.6384 54.0619C48.0404 54.8667 48.2301 55.761 48.1895 56.6598C48.149 57.5585 47.8794 58.432 47.4064 59.1974C46.9335 59.9627 46.2728 60.5945 45.4871 61.0329C44.7014 61.4712 43.8168 61.7015 42.9171 61.702Z" fill="#CDBBFA"/>
<path d="M31.9997 47.0567V61.702H21.0824C20.1827 61.7015 19.2981 61.4712 18.5124 61.0329C17.7267 60.5945 17.066 59.9627 16.5931 59.1974C16.1201 58.432 15.8505 57.5585 15.8099 56.6598C15.7693 55.761 15.9591 54.8667 16.3611 54.0619L20.7137 46.6266C21.7003 47.0309 22.7437 47.2797 23.8066 47.364C25.8549 47.364 26.879 46.3398 28.9273 46.3398C29.9774 46.4493 31.0096 46.6901 31.9997 47.0567Z" fill="#CDBBFA"/>
<path d="M48.5218 53.5462L39.0997 37.4519C38.4743 36.3846 38.1445 35.1699 38.1441 33.9329V24.8344C38.1441 24.5628 38.0362 24.3023 37.8442 24.1103C37.6521 23.9182 37.3916 23.8103 37.12 23.8103H33.0234V19.4219C34.2466 19.9903 35.5767 20.2922 36.9254 20.3077C37.8103 20.3089 38.6893 20.1636 39.5267 19.8776C45.6583 17.7863 48.2104 11.4131 48.3159 11.1427C48.4138 10.8911 48.4085 10.6109 48.3012 10.3632C48.1938 10.1155 47.993 9.92008 47.7424 9.8195C44.1886 8.5285 40.2939 8.5285 36.74 9.8195C35.2577 10.4755 33.9754 11.5122 33.0234 12.8243V12.5447C33.0234 10.0837 33.0234 4.96302 28.3943 2.4293C22.6612 -0.708674 16.4457 2.27977 16.1845 2.40881C15.9607 2.51893 15.7848 2.70693 15.6897 2.93754C15.5947 3.16815 15.5871 3.42552 15.6683 3.66134C15.7656 3.944 18.1232 10.6265 23.7959 13.6119C24.998 14.2312 26.3335 14.5466 27.6856 14.5306C28.8009 14.5214 29.909 14.3503 30.9752 14.0226V23.8103H26.8786C26.607 23.8103 26.3465 23.9182 26.1544 24.1103C25.9623 24.3023 25.8544 24.5628 25.8544 24.8344V33.9329C25.8541 35.1699 25.5243 36.3846 24.8989 37.4519L15.4451 53.6067C14.965 54.5676 14.7384 55.6352 14.7868 56.7083C14.8352 57.7813 15.1571 58.8242 15.7218 59.738C16.2865 60.6517 17.0753 61.406 18.0134 61.9293C18.9515 62.4525 20.0078 62.7273 21.0819 62.7277H42.9166C43.9965 62.7274 45.0583 62.4497 46 61.9211C46.9417 61.3925 47.7318 60.6309 48.2945 59.7091C48.8572 58.7874 49.1736 57.7366 49.2134 56.6574C49.2532 55.5782 49.015 54.5069 48.5218 53.5462ZM37.4989 11.7203C40.2065 10.739 43.1524 10.6252 45.9276 11.3946C45.009 13.1254 42.7425 16.6157 38.8641 17.9389C37.8989 18.2185 36.8858 18.2926 35.8902 18.1564C34.8945 18.0202 33.9385 17.6768 33.0839 17.1483C33.4008 15.9857 33.9573 14.9023 34.7176 13.9676C35.478 13.0328 36.4253 12.2674 37.4989 11.7203ZM24.7484 11.7992C20.9488 9.79902 18.7817 5.70552 17.9726 3.89177C19.7219 3.26909 23.7672 2.23164 27.4101 4.22564C30.458 5.89397 30.9168 8.96844 30.968 11.8627C29.8066 12.2897 27.0916 13.0343 24.7494 11.8002L24.7484 11.7992ZM36.0959 25.8586V33.9329C36.0961 35.5337 36.5224 37.1057 37.331 38.4873L41.3763 45.3931C40.9832 45.348 40.5881 45.3227 40.1924 45.3173C39.0676 45.3611 37.9524 45.5434 36.8722 45.8601C35.9532 46.1327 35.0049 46.2943 34.0476 46.3414C33.7037 46.3373 33.3609 46.302 33.0234 46.2359V25.8586H36.0959ZM26.6676 38.4873C27.4762 37.1057 27.9025 35.5337 27.9027 33.9329V25.8586H30.9752V45.6829C30.3138 45.4619 29.6238 45.3387 28.9269 45.3173C27.9402 45.3381 26.9646 45.529 26.0429 45.8816C25.3297 46.1638 24.5728 46.3194 23.8062 46.3414C23.2733 46.3145 22.7464 46.2171 22.2392 46.0516L26.6676 38.4873ZM46.5319 58.6649C46.1527 59.2826 45.621 59.7924 44.9878 60.1452C44.3547 60.498 43.6414 60.6819 42.9166 60.6794H21.0819C20.3624 60.6788 19.6548 60.4958 19.0251 60.1477C18.3954 59.7995 17.8643 59.2975 17.4811 58.6884C17.098 58.0794 16.8755 57.3832 16.8343 56.6649C16.7931 55.9465 16.9345 55.2295 17.2455 54.5806L21.1782 47.8653C22.0235 48.1691 22.9091 48.3458 23.8062 48.3897C24.7928 48.3689 25.7684 48.178 26.6901 47.8254C27.4033 47.5432 28.1602 47.3876 28.9269 47.3656C29.5774 47.4114 30.2179 47.5508 30.8287 47.7793C31.8631 48.1501 32.9493 48.3561 34.0476 48.3897C35.1724 48.3459 36.2876 48.1636 37.3678 47.8469C38.2868 47.5743 39.2351 47.4127 40.1924 47.3656C41.0335 47.3954 41.871 47.4903 42.6975 47.6492L46.7213 54.5212C47.0479 55.1701 47.202 55.8922 47.1688 56.6179C47.1356 57.3436 46.9163 58.0485 46.5319 58.6649Z" fill="#2B2171"/>
</svg>
