<svg width="20" height="20" viewBox="0 0 20 20" fill="none" xmlns="http://www.w3.org/2000/svg">
<path d="M4.73823 2.98368L5.46858 2.25332C5.79402 1.92788 6.32166 1.92788 6.64709 2.25332L8.97736 4.58358C9.30279 4.90902 9.30279 5.43665 8.97736 5.76209L7.37405 7.36539C7.11187 7.62757 7.04688 8.0281 7.21269 8.35973C8.17125 10.2769 9.72575 11.8314 11.6429 12.7899C11.9745 12.9557 12.375 12.8907 12.6372 12.6286L14.2405 11.0252C14.566 10.6998 15.0936 10.6998 15.419 11.0252L17.7493 13.3555C18.0747 13.6809 18.0747 14.2086 17.7493 14.534L17.0189 15.2644C15.2595 17.0238 12.474 17.2218 10.4834 15.7288L9.12551 14.7104C7.67257 13.6207 6.38188 12.33 5.29218 10.8771L4.27376 9.51921C2.78081 7.52861 2.97877 4.74314 4.73823 2.98368Z" stroke="black" stroke-width="1.5"/>
</svg>
