<svg width="24" height="24" viewBox="0 0 24 24" fill="none" xmlns="http://www.w3.org/2000/svg">
<path fill-rule="evenodd" clip-rule="evenodd" d="M3.0216 9.86997C3 10.4748 3 11.1776 3 12V14C3 16.8284 3 18.2426 3.87868 19.1213C4.75736 20 6.17157 20 9 20H15C17.8284 20 19.2426 20 20.1213 19.1213C21 18.2426 21 16.8284 21 14V12C21 11.1776 21 10.4748 20.9784 9.86997L12.8499 14.3858C12.3213 14.6794 11.6787 14.6794 11.1501 14.3858L3.0216 9.86997ZM3.18411 8.27276C3.24562 8.28837 3.30614 8.31211 3.36423 8.34438L11.8786 13.0746C11.9541 13.1165 12.0459 13.1165 12.1214 13.0746L20.6358 8.34438C20.6939 8.31211 20.7544 8.28837 20.8159 8.27276C20.69 7.68055 20.4781 7.23547 20.1213 6.87868C19.2426 6 17.8284 6 15 6H9C6.17157 6 4.75736 6 3.87868 6.87868C3.52189 7.23547 3.30998 7.68055 3.18411 8.27276Z" fill="white"/>
</svg>
