<svg width="24" height="24" viewBox="0 0 24 24" fill="none" xmlns="http://www.w3.org/2000/svg">
<path fill-rule="evenodd" clip-rule="evenodd" d="M17.9914 21H6.00863C4.35277 21 3 19.6472 3 17.9914V6.00862C3 4.35277 4.35277 3 6.00863 3H17.9914C19.6472 3 21 4.35277 21 6.00862V17.9914C21 19.6546 19.6546 21 17.9914 21ZM12.02 8.14844C9.88268 8.14844 8.15002 9.8811 8.15002 12.0184C8.15002 14.1558 9.88268 15.8884 12.02 15.8884C14.1574 15.8884 15.89 14.1558 15.89 12.0184C15.89 9.8811 14.1574 8.14844 12.02 8.14844ZM6.65002 12.0184C6.65002 9.05267 9.05426 6.64844 12.02 6.64844C14.9858 6.64844 17.39 9.05267 17.39 12.0184C17.39 14.9842 14.9858 17.3884 12.02 17.3884C9.05426 17.3884 6.65002 14.9842 6.65002 12.0184ZM19 6C19 6.55228 18.5523 7 18 7C17.4477 7 17 6.55228 17 6C17 5.44772 17.4477 5 18 5C18.5523 5 19 5.44772 19 6Z" fill="white"/>
</svg>
