<svg width="29" height="28" viewBox="0 0 29 28" fill="none" xmlns="http://www.w3.org/2000/svg">
<g clip-path="url(#clip0_2084_1562)">
<path d="M28.5046 8.37618C28.4756 8.16288 28.3186 7.97562 28.056 7.97061C27.2802 7.97061 26.654 7.07437 26.654 5.96784C26.5862 5.24183 25.6979 5.32545 25.71 6.06297C25.7131 6.06631 25.7131 6.06964 25.71 6.07298C25.71 6.17813 25.7007 6.27827 25.6867 6.37841C21.2986 -1.66275 9.91479 -0.461081 7.09688 8.47131H1.88632C1.11058 8.47131 0.484375 9.14725 0.484375 9.97339V14.4997C0.484375 16.2922 1.35825 18.0196 2.82562 19.1161C3.25657 19.4399 3.60848 19.8701 3.85167 20.3703C4.09485 20.8705 4.22218 21.4261 4.22289 21.9901V23.9928H3.75558C1.90501 24.0429 1.90501 26.9469 3.75558 26.997H7.4941C7.78383 26.997 8.05955 26.9019 8.28386 26.7366C8.53621 26.9019 8.82594 26.997 9.1297 26.997H25.0184C26.4531 27.0371 27.2054 25.0293 26.1587 23.9928C27.2101 22.9314 26.4531 20.9636 25.0184 20.9887H22.7379C26.0484 18.6334 27.662 13.995 26.9718 9.72304C27.1998 9.28894 27.6157 8.96499 28.056 8.972C28.4018 8.967 28.5513 8.65156 28.5046 8.37618ZM26.182 7.79036C26.2755 7.95559 26.3876 8.1058 26.5091 8.24099L26.4951 8.19593C26.5792 8.29607 26.668 8.3912 26.7662 8.47131C26.5428 8.6816 26.3423 8.91593 26.182 9.19231C26.0231 8.92193 25.8269 8.6816 25.6025 8.49134C25.8269 8.30107 26.0231 8.06074 26.182 7.79036ZM3.35836 18.2949C2.12465 17.3687 1.419 15.9867 1.419 14.4997V9.97339C1.419 9.69801 1.6293 9.4727 1.88632 9.4727H9.36336C9.62038 9.4727 9.83067 9.69801 9.83067 9.97339V14.4997C9.83067 15.9867 9.12035 17.3687 7.88664 18.2949C7.33267 18.7113 6.8804 19.2644 6.56805 19.9076C6.25571 20.5508 6.09248 21.265 6.09215 21.9901V23.9928H5.15752V21.9901C5.15628 21.2647 4.99217 20.5503 4.67903 19.9071C4.36589 19.264 3.91292 18.711 3.35836 18.2949ZM7.4941 25.9956H3.75558C3.1434 25.9856 3.13872 25.0042 3.75558 24.9942H7.4941C8.10628 25.0042 8.10628 25.9856 7.4941 25.9956ZM7.98478 23.9928C7.95207 24.0279 7.93805 24.0479 7.91935 24.0729C7.68102 23.9678 7.28381 23.9978 7.02678 23.9928C7.01276 21.6997 6.78845 20.2577 8.78389 18.8157C9.40542 19.6568 10.1298 20.3828 10.9382 20.9887H9.1297C7.69037 20.9486 6.93799 22.9564 7.98478 23.9928ZM25.5138 25.7753C25.3829 25.9155 25.2053 25.9956 25.0184 25.9956H9.1297C9.02222 25.9956 8.92408 25.9706 8.83062 25.9255C8.95679 25.5149 8.8867 25.0243 8.66706 24.6838C8.79323 24.5636 8.95679 24.4935 9.1297 24.4935H25.0184C25.6259 24.4735 25.953 25.3297 25.5138 25.7753ZM25.0184 21.9901C25.9343 22.0051 25.9437 23.4771 25.0184 23.4921H9.1297C8.20909 23.4771 8.20442 22.0051 9.1297 21.9901H12.5691C15.1814 23.3219 18.5274 23.3119 21.1163 21.9901H25.0184ZM9.46149 18.1147C9.92413 17.5439 10.2699 16.888 10.4896 16.197C14.4898 22.9714 24.2427 20.0374 24.3174 11.9762C24.2099 3.37424 13.4243 0.900809 10.0363 8.66658C9.6344 8.36116 8.5549 8.50135 8.08759 8.47131C10.9709 0.279947 21.6164 -0.240775 25.196 7.51498C24.953 7.79537 24.6492 7.97061 24.3174 7.97061C24.0791 7.97562 23.9296 8.12583 23.8782 8.30608C23.7964 8.60399 23.9417 8.96449 24.3174 8.972C25.0885 8.972 25.7194 9.87325 25.7194 10.9748C25.7194 11.2452 25.9156 11.4554 26.1633 11.4705C26.6087 21.219 15.0632 25.7903 9.46149 18.1147ZM10.7045 9.56282C13.3122 2.27772 23.2613 4.17034 23.3828 11.9762C23.266 19.6919 13.5178 21.6646 10.7606 14.5598C10.7466 14.3595 10.8214 9.57784 10.7045 9.56282Z" fill="white"/>
<path d="M3.99179 4.96598C4.76473 4.96598 5.39373 5.86472 5.39373 6.96875C5.40308 7.62566 6.31808 7.62867 6.32836 6.96875C6.32836 5.86472 6.95737 4.96598 7.73031 4.96598C7.85425 4.96598 7.97311 4.91322 8.06075 4.81933C8.14839 4.72543 8.19762 4.59807 8.19762 4.46528C8.19762 4.33249 8.14839 4.20514 8.06075 4.11124C7.97311 4.01734 7.85425 3.96459 7.73031 3.96459C6.95737 3.96459 6.32836 3.06634 6.32836 1.96181C6.31855 1.3059 5.40401 1.3029 5.39373 1.96181C5.39373 3.06634 4.76473 3.96459 3.99179 3.96459C3.37867 3.9756 3.3768 4.95546 3.99179 4.96598ZM5.86105 3.76281C6.01581 4.03048 6.21173 4.26816 6.44052 4.46578C6.21761 4.65605 6.02134 4.89438 5.86105 5.16876C5.70629 4.90109 5.51036 4.66341 5.28158 4.46578C5.50449 4.27552 5.70076 4.03719 5.86105 3.76281Z" fill="white"/>
</g>
<defs>
<clipPath id="clip0_2084_1562">
<rect width="28" height="28" fill="white" transform="translate(0.5)"/>
</clipPath>
</defs>
</svg>
