<svg width="28" height="28" viewBox="0 0 28 28" fill="none" xmlns="http://www.w3.org/2000/svg">
<g clip-path="url(#clip0_2084_1590)">
<path d="M24.3707 21.1344C23.8461 21.1038 23.3216 21.0694 22.7974 21.0313C21.0908 20.907 18.1099 19.1102 14.6581 17.0296C14.083 16.6832 13.4919 16.3268 12.8871 15.9661C12.8009 15.915 12.6992 15.8962 12.6004 15.9133C12.5016 15.9304 12.4121 15.9822 12.3481 16.0594C12.3293 16.082 10.4449 18.3237 7.90143 18.3237C5.23079 18.3237 2.55511 17.3558 2.52851 17.3462C2.44054 17.314 2.3443 17.312 2.2551 17.3407C2.16591 17.3695 2.08888 17.4272 2.03627 17.5047C1.95759 17.6209 0.133947 20.3775 1.41691 24.0111V26.6C1.41691 26.7114 1.46116 26.8182 1.53992 26.897C1.61869 26.9757 1.72552 27.02 1.83691 27.02H8.67675C8.78814 27.02 8.89497 26.9757 8.97373 26.897C9.0525 26.8182 9.09675 26.7114 9.09675 26.6V26.0355C10.7723 26.2715 16.3451 27.02 19.6303 27.02C23.4778 27.02 26.5869 26.1063 26.7174 26.0677C26.8041 26.0419 26.8802 25.9887 26.9342 25.9161C26.9882 25.8436 27.0174 25.7555 27.0173 25.665V23.9419C27.017 22.454 25.8547 21.2203 24.3707 21.1344ZM2.57471 18.2492C3.40127 18.5186 5.61859 19.1637 7.90115 19.1637C10.3019 19.1637 12.116 17.5266 12.7519 16.8638C13.0517 17.0433 13.3469 17.2205 13.6395 17.3966L12.7127 18.4912C12.6608 18.5522 12.6275 18.6269 12.6167 18.7063C12.6059 18.7856 12.6181 18.8665 12.6518 18.9392C12.6854 19.0119 12.7393 19.0734 12.8068 19.1164C12.8744 19.1595 12.9529 19.1823 13.033 19.1822C13.0941 19.1822 13.1544 19.169 13.2098 19.1433C13.2653 19.1176 13.3144 19.0801 13.3539 19.0335L14.368 17.8354L14.9219 18.1692L13.9959 19.2626C13.9597 19.3046 13.9321 19.3533 13.9148 19.406C13.8975 19.4588 13.8908 19.5144 13.8952 19.5697C13.8995 19.625 13.9147 19.6789 13.94 19.7283C13.9653 19.7777 14.0001 19.8216 14.0424 19.8574C14.0847 19.8933 14.1338 19.9204 14.1866 19.9372C14.2395 19.954 14.2952 19.9602 14.3504 19.9554C14.4057 19.9505 14.4595 19.9348 14.5086 19.9091C14.5578 19.8834 14.6014 19.8481 14.6368 19.8055L15.6518 18.6068C15.8355 18.7166 16.0178 18.8252 16.197 18.9316L15.2685 20.0281C15.1965 20.1131 15.1612 20.2233 15.1705 20.3343C15.1797 20.4453 15.2326 20.5482 15.3176 20.6201C15.4027 20.6921 15.5128 20.7274 15.6239 20.7182C15.7349 20.709 15.8377 20.656 15.9097 20.571L16.9325 19.3631C19.3565 20.774 21.3232 21.7658 22.7358 21.8685C23.2995 21.9097 23.8371 21.9441 24.3217 21.9721C25.2511 22.0262 26.0006 22.7228 26.1496 23.6146C25.1735 23.8333 22.2472 24.4221 19.0502 24.4221C17.5609 24.4221 15.1097 24.1514 12.947 23.9125C11.0486 23.7025 9.40923 23.5216 8.51659 23.5216H2.13707C1.33599 21.0103 2.19839 18.9652 2.57471 18.2492ZM19.6301 26.18C15.8747 26.18 8.80863 25.1462 8.73779 25.1356C8.67809 25.1269 8.61723 25.1312 8.55933 25.1481C8.50143 25.165 8.44784 25.1941 8.40219 25.2336C8.35655 25.273 8.31991 25.3218 8.29477 25.3766C8.26963 25.4315 8.25656 25.491 8.25647 25.5514V26.18H2.25663V24.3619H8.51687C9.36303 24.3619 11.0593 24.5492 12.8549 24.7478C15.0389 24.9891 17.5147 25.2627 19.0502 25.2627C22.2063 25.2627 25.0402 24.7203 26.1767 24.4708V25.3444C25.3118 25.569 22.6804 26.18 19.6301 26.18ZM11.6305 7.60841C11.6428 7.60841 11.6554 7.60729 11.6677 7.60701C11.7031 7.92397 11.8564 8.21602 12.0972 8.42517C12.33 8.62726 12.6281 8.73826 12.9364 8.73765C12.9484 8.73765 12.9602 8.73429 12.9719 8.73401C13.0069 9.0521 13.1605 9.34533 13.402 9.55525C13.6343 9.75765 13.932 9.86898 14.2401 9.86857C14.2527 9.86857 14.2653 9.86745 14.2779 9.86717C14.3127 10.1787 14.4612 10.4664 14.695 10.6752C14.9288 10.884 15.2314 10.9991 15.5449 10.9986C15.5572 10.9986 15.5698 10.9975 15.5821 10.9972C15.6171 11.3088 15.7657 11.5965 15.9996 11.8053C16.2335 12.0141 16.5362 12.1292 16.8497 12.1287C16.862 12.1287 16.8746 12.1276 16.8869 12.1273C16.9223 12.4442 17.0756 12.7362 17.3164 12.9452C17.5486 13.1478 17.8464 13.2592 18.1545 13.2588C18.1671 13.2588 18.1797 13.2577 18.1923 13.2574C18.2274 13.5689 18.3762 13.8566 18.6102 14.0652C18.8441 14.2738 19.1469 14.3888 19.4604 14.388C19.4724 14.388 19.4842 14.3847 19.4962 14.3844C19.5311 14.7025 19.6848 14.9957 19.9266 15.2054C20.1594 15.4073 20.4573 15.5183 20.7655 15.5178C20.7775 15.5178 20.7893 15.5145 20.801 15.5142C20.8359 15.8324 20.9896 16.1257 21.2314 16.3354C21.4642 16.5374 21.7621 16.6484 22.0703 16.6479C22.2544 16.6483 22.4364 16.609 22.6039 16.5326C22.7714 16.4563 22.9205 16.3447 23.041 16.2055L23.6713 15.4778L24.8806 14.0812L25.0147 14.1974C25.0564 14.2337 25.1047 14.2613 25.1571 14.2789C25.2095 14.2964 25.2648 14.3033 25.3198 14.2994C25.3749 14.2954 25.4287 14.2806 25.478 14.2558C25.5273 14.231 25.5712 14.1967 25.6072 14.1548L26.9302 12.6274C27.0517 12.4874 27.0666 12.2838 26.9675 12.1273C26.8602 11.9585 24.3136 7.96877 21.4733 5.50897C18.6327 3.04917 14.3199 1.09869 14.1379 1.01693C14.0555 0.979875 13.9633 0.97038 13.8751 0.98985C13.7869 1.00932 13.7073 1.05672 13.6481 1.12501L12.3251 2.65241C12.289 2.69406 12.2614 2.74244 12.244 2.79476C12.2266 2.84708 12.2197 2.90233 12.2236 2.95733C12.2276 3.01234 12.2423 3.06602 12.2671 3.11532C12.2918 3.16461 12.326 3.20855 12.3677 3.24461L12.5018 3.36081L11.2141 4.84789L10.6622 5.48489C10.5516 5.61202 10.4672 5.75984 10.414 5.91979C10.3609 6.07974 10.34 6.24864 10.3525 6.41673C10.3642 6.58488 10.409 6.74906 10.4844 6.89978C10.5599 7.0505 10.6645 7.18476 10.7921 7.29481C11.0244 7.49738 11.3223 7.60881 11.6305 7.60841ZM12.6474 7.79013C12.6034 7.7521 12.5673 7.70572 12.5412 7.65368C12.5152 7.60163 12.4997 7.54494 12.4957 7.48689C12.4913 7.42885 12.4985 7.37053 12.5169 7.3153C12.5352 7.26007 12.5644 7.20904 12.6026 7.16517L14.4422 5.04109L15.112 5.62125L13.2724 7.74533C13.1953 7.83383 13.0862 7.88823 12.9691 7.89662C12.852 7.90501 12.7364 7.86673 12.6474 7.79013ZM13.9522 8.92021C13.9081 8.88226 13.8719 8.8359 13.8459 8.78384C13.8198 8.73178 13.8044 8.67505 13.8005 8.61697C13.7921 8.49909 13.8299 8.38457 13.9074 8.29525L15.747 6.17117L16.4171 6.75133L14.5775 8.87541C14.5395 8.91952 14.4931 8.95565 14.4411 8.9817C14.389 9.00775 14.3323 9.02321 14.2742 9.02717C14.157 9.03535 14.0413 8.99691 13.9522 8.92021ZM15.2573 10.0503C15.1686 9.97332 15.114 9.86429 15.1055 9.74713C15.0971 9.62996 15.1354 9.51423 15.2122 9.42533L17.0518 7.30125L17.7216 7.88141L15.882 10.0055C15.8044 10.0951 15.6969 10.1488 15.5787 10.1572C15.5208 10.1615 15.4625 10.1542 15.4073 10.1359C15.3522 10.1175 15.3012 10.0884 15.2573 10.0503ZM16.5618 11.1801C16.4732 11.103 16.4187 10.994 16.4103 10.8769C16.4019 10.7597 16.4403 10.644 16.517 10.5551L18.3566 8.43105L19.0267 9.01121L17.1871 11.1353C17.1491 11.1794 17.1027 11.2155 17.0507 11.2416C16.9986 11.2676 16.9419 11.2831 16.8838 11.287C16.8257 11.2916 16.7673 11.2845 16.712 11.2662C16.6567 11.2478 16.6056 11.2185 16.5618 11.1801ZM17.8666 12.3102C17.8225 12.2722 17.7864 12.2258 17.7603 12.1738C17.7343 12.1217 17.7188 12.065 17.7149 12.0069C17.7065 11.889 17.7443 11.7745 17.8218 11.6852L19.6614 9.56113L20.3312 10.1413L18.4916 12.2654C18.4143 12.355 18.3065 12.4087 18.1883 12.4171C18.1303 12.4219 18.0718 12.4149 18.0166 12.3965C17.9613 12.3782 17.9103 12.3488 17.8666 12.3102ZM19.1717 13.4405C19.083 13.3636 19.0284 13.2545 19.0199 13.1374C19.0115 13.0202 19.0498 12.9045 19.1266 12.8156L19.7569 12.0878L20.9662 10.6915L21.636 11.2716L19.7964 13.3957C19.6365 13.5805 19.3559 13.6001 19.1717 13.4405ZM20.4765 14.5703C20.4324 14.5323 20.3963 14.4859 20.3703 14.4339C20.3442 14.3818 20.3288 14.3252 20.3247 14.2671C20.3163 14.1492 20.3541 14.0347 20.4317 13.9454L22.2713 11.8213L22.9413 12.4014L21.1017 14.5255C21.0247 14.6142 20.9156 14.6688 20.7984 14.6772C20.6812 14.6856 20.5654 14.6472 20.4765 14.5703ZM22.4063 15.6556C22.3292 15.7442 22.2202 15.7987 22.103 15.8071C21.9859 15.8155 21.8702 15.7772 21.7813 15.7004C21.692 15.6228 21.6379 15.5153 21.6295 15.3972C21.6211 15.279 21.6589 15.165 21.7365 15.0754L23.5761 12.9514L24.2459 13.5315L22.4063 15.6556ZM14.0757 1.91433C15.0859 2.39257 18.5834 4.11765 20.9231 6.14401C23.2628 8.17037 25.4703 11.3856 26.0877 12.3169L25.2471 13.2874L13.2351 2.88453L14.0757 1.91433ZM13.8072 4.49117L11.9676 6.61497C11.89 6.70457 11.7822 6.75861 11.6643 6.76701C11.577 6.773 11.4899 6.75303 11.4139 6.70962C11.3379 6.6662 11.2764 6.60128 11.2372 6.52302C11.198 6.44476 11.1828 6.35666 11.1935 6.26978C11.2043 6.18291 11.2405 6.10116 11.2975 6.03481L13.1371 3.91073L13.8072 4.49117ZM6.20155 11.7174C6.13542 11.7536 6.08025 11.8069 6.04181 11.8717C6.00338 11.9365 5.9831 12.0105 5.9831 12.0859C5.9831 12.1613 6.00338 12.2352 6.04181 12.3001C6.08025 12.3649 6.13542 12.4182 6.20155 12.4544L7.50495 13.1672L8.21783 14.4706C8.254 14.5368 8.30729 14.5919 8.37212 14.6304C8.43696 14.6688 8.51094 14.6891 8.58631 14.6891C8.66168 14.6891 8.73566 14.6688 8.80049 14.6304C8.86532 14.5919 8.91862 14.5368 8.95479 14.4706L9.66767 13.1672L10.9711 12.4544C11.0372 12.4182 11.0924 12.3649 11.1308 12.3001C11.1692 12.2352 11.1895 12.1613 11.1895 12.0859C11.1895 12.0105 11.1692 11.9365 11.1308 11.8717C11.0924 11.8069 11.0372 11.7536 10.9711 11.7174L9.66767 11.0045L8.95479 9.70113C8.91862 9.635 8.86532 9.57983 8.80049 9.54139C8.73566 9.50296 8.66168 9.48268 8.58631 9.48268C8.51094 9.48268 8.43696 9.50296 8.37212 9.54139C8.30729 9.57983 8.254 9.635 8.21783 9.70113L7.50495 11.0045L6.20155 11.7174ZM8.18283 11.5155L8.58631 10.778L8.98951 11.5155C9.02815 11.5858 9.08583 11.6438 9.15639 11.6824L9.89419 12.0859L9.15639 12.4894C9.086 12.528 9.0281 12.5859 8.98951 12.6562L8.58631 13.3938L8.18283 12.6562C8.14429 12.5858 8.08638 12.5279 8.01595 12.4894L7.27843 12.0859L8.01595 11.6824C8.08638 11.6439 8.14429 11.586 8.18283 11.5155ZM1.18843 7.72153L3.05687 8.74353L4.07887 10.612C4.11504 10.6781 4.16833 10.7333 4.23316 10.7717C4.298 10.8101 4.37198 10.8304 4.44735 10.8304C4.52272 10.8304 4.5967 10.8101 4.66153 10.7717C4.72636 10.7333 4.77966 10.6781 4.81583 10.612L5.83783 8.74353L7.70627 7.72153C7.77239 7.68536 7.82756 7.63206 7.866 7.56723C7.90444 7.5024 7.92472 7.42842 7.92472 7.35305C7.92472 7.27768 7.90444 7.2037 7.866 7.13886C7.82756 7.07403 7.77239 7.02073 7.70627 6.98457L5.83783 5.96257L4.81583 4.09413C4.77966 4.028 4.72636 3.97283 4.66153 3.93439C4.5967 3.89596 4.52272 3.87568 4.44735 3.87568C4.37198 3.87568 4.298 3.89596 4.23316 3.93439C4.16833 3.97283 4.11504 4.028 4.07887 4.09413L3.05687 5.96285L1.18843 6.98457C1.1223 7.02073 1.06713 7.07403 1.02869 7.13886C0.990259 7.2037 0.969977 7.27768 0.969977 7.35305C0.969977 7.42842 0.990259 7.5024 1.02869 7.56723C1.06713 7.63206 1.1223 7.68536 1.18843 7.72153ZM3.56787 6.64045C3.63843 6.60181 3.69611 6.54385 3.73475 6.47357L4.44707 5.17073L5.15967 6.47357C5.19831 6.54413 5.25627 6.60181 5.32655 6.64045L6.62911 7.35277L5.32655 8.06537C5.25611 8.1039 5.1982 8.16181 5.15967 8.23225L4.44707 9.53481L3.73475 8.23225C3.69615 8.16186 3.63825 8.10396 3.56787 8.06537L2.26531 7.35277L3.56787 6.64045Z" fill="white"/>
</g>
<defs>
<clipPath id="clip0_2084_1590">
<rect width="28" height="28" fill="white"/>
</clipPath>
</defs>
</svg>
