<svg width="28" height="28" viewBox="0 0 28 28" fill="none" xmlns="http://www.w3.org/2000/svg">
<path d="M10.5 9.1875C6.64037 9.1875 3.5 12.3279 3.5 16.1875C3.5 20.0471 6.64037 23.1875 10.5 23.1875C14.3596 23.1875 17.5 20.0471 17.5 16.1875C17.5 12.3279 14.3596 9.1875 10.5 9.1875ZM10.5 22.3125C7.1225 22.3125 4.375 19.565 4.375 16.1875C4.375 12.81 7.1225 10.0625 10.5 10.0625C13.8775 10.0625 16.625 12.81 16.625 16.1875C16.625 19.565 13.8775 22.3125 10.5 22.3125Z" fill="white"/>
<path d="M10.5 11.375C7.84612 11.375 5.6875 13.5341 5.6875 16.1875C5.6875 18.8409 7.84612 21 10.5 21C13.1534 21 15.3125 18.8409 15.3125 16.1875C15.3125 13.5341 13.1534 11.375 10.5 11.375ZM10.5 20.125C8.32869 20.125 6.5625 18.3588 6.5625 16.1875C6.5625 14.0162 8.32869 12.25 10.5 12.25C12.6713 12.25 14.4375 14.0162 14.4375 16.1875C14.4375 18.3588 12.6713 20.125 10.5 20.125Z" fill="white"/>
<path d="M13.125 15.75C13.009 15.75 12.8977 15.7961 12.8156 15.8781C12.7336 15.9602 12.6875 16.0715 12.6875 16.1875C12.6875 17.3937 11.7062 18.375 10.5 18.375C10.384 18.375 10.2727 18.4211 10.1906 18.5031C10.1086 18.5852 10.0625 18.6965 10.0625 18.8125C10.0625 18.9285 10.1086 19.0398 10.1906 19.1219C10.2727 19.2039 10.384 19.25 10.5 19.25C12.1883 19.25 13.5625 17.8758 13.5625 16.1875C13.5625 16.0715 13.5164 15.9602 13.4344 15.8781C13.3523 15.7961 13.241 15.75 13.125 15.75Z" fill="white"/>
<path d="M27.5625 21H27.0441C27.0935 20.8626 27.125 20.7169 27.125 20.5625V20.125C27.1239 19.8011 27.0023 19.4891 26.7838 19.25C27.0023 19.0109 27.1239 18.6989 27.125 18.375V17.9375C27.125 17.2139 26.5361 16.625 25.8125 16.625H21.0004V2.625C21.0004 1.65987 20.2156 0.875 19.2504 0.875H1.75044C0.785312 0.875 0.0004375 1.65987 0.0004375 2.625V6.56031L0 6.5625L0.0004375 6.56469V25.375C0.0004375 26.3401 0.785312 27.125 1.75044 27.125H26.25C27.2151 27.125 28 26.3401 28 25.375V21.4375C28 21.3215 27.9539 21.2102 27.8719 21.1281C27.7898 21.0461 27.6785 21 27.5625 21ZM19.25 20.5625V20.125C19.25 20.009 19.2961 19.8977 19.3781 19.8156C19.4602 19.7336 19.5715 19.6875 19.6875 19.6875H25.8125C25.9285 19.6875 26.0398 19.7336 26.1219 19.8156C26.2039 19.8977 26.25 20.009 26.25 20.125V20.5625C26.25 20.6785 26.2039 20.7898 26.1219 20.8719C26.0398 20.9539 25.9285 21 25.8125 21H19.6875C19.5715 21 19.4602 20.9539 19.3781 20.8719C19.2961 20.7898 19.25 20.6785 19.25 20.5625ZM26.25 17.9375V18.375C26.25 18.491 26.2039 18.6023 26.1219 18.6844C26.0398 18.7664 25.9285 18.8125 25.8125 18.8125H19.6875C19.5715 18.8125 19.4602 18.7664 19.3781 18.6844C19.2961 18.6023 19.25 18.491 19.25 18.375V17.9375C19.25 17.8215 19.2961 17.7102 19.3781 17.6281C19.4602 17.5461 19.5715 17.5 19.6875 17.5H25.8125C25.9285 17.5 26.0398 17.5461 26.1219 17.6281C26.2039 17.7102 26.25 17.8215 26.25 17.9375ZM1.75044 1.75H19.2504C19.7326 1.75 20.1254 2.14287 20.1254 2.625V6.125H0.875437V2.625C0.875437 2.14287 1.26787 1.75 1.75044 1.75ZM0.875437 25.375V7H20.1254V16.625H19.6875C18.9639 16.625 18.375 17.2139 18.375 17.9375V18.375C18.375 18.7123 18.5067 19.0173 18.7162 19.25C18.4977 19.4891 18.3761 19.8011 18.375 20.125V20.5625C18.375 20.7169 18.4065 20.8626 18.4559 21H17.9375C17.8215 21 17.7102 21.0461 17.6281 21.1281C17.5461 21.2102 17.5 21.3215 17.5 21.4375V25.375C17.5 25.6948 17.5928 25.9914 17.7437 26.25H1.75044C1.26787 26.25 0.875437 25.8576 0.875437 25.375ZM27.125 25.375C27.125 25.8576 26.7321 26.25 26.25 26.25H19.25C18.7674 26.25 18.375 25.8576 18.375 25.375V21.875H27.125V25.375Z" fill="white"/>
<path d="M3.0625 5.25C3.78612 5.25 4.375 4.66112 4.375 3.9375C4.375 3.21387 3.78612 2.625 3.0625 2.625C2.33887 2.625 1.75 3.21387 1.75 3.9375C1.75 4.66112 2.33887 5.25 3.0625 5.25ZM3.0625 3.5C3.17853 3.5 3.28981 3.54609 3.37186 3.62814C3.45391 3.71019 3.5 3.82147 3.5 3.9375C3.5 4.05353 3.45391 4.16481 3.37186 4.24686C3.28981 4.32891 3.17853 4.375 3.0625 4.375C2.94647 4.375 2.83519 4.32891 2.75314 4.24686C2.67109 4.16481 2.625 4.05353 2.625 3.9375C2.625 3.82147 2.67109 3.71019 2.75314 3.62814C2.83519 3.54609 2.94647 3.5 3.0625 3.5ZM17.9375 5.25C18.6611 5.25 19.25 4.66112 19.25 3.9375C19.25 3.21387 18.6611 2.625 17.9375 2.625C17.2139 2.625 16.625 3.21387 16.625 3.9375C16.625 4.66112 17.2139 5.25 17.9375 5.25ZM17.9375 3.5C18.0535 3.5 18.1648 3.54609 18.2469 3.62814C18.3289 3.71019 18.375 3.82147 18.375 3.9375C18.375 4.05353 18.3289 4.16481 18.2469 4.24686C18.1648 4.32891 18.0535 4.375 17.9375 4.375C17.8215 4.375 17.7102 4.32891 17.6281 4.24686C17.5461 4.16481 17.5 4.05353 17.5 3.9375C17.5 3.82147 17.5461 3.71019 17.6281 3.62814C17.7102 3.54609 17.8215 3.5 17.9375 3.5ZM11.8125 5.25H14.4375C15.1611 5.25 15.75 4.66112 15.75 3.9375C15.75 3.21387 15.1611 2.625 14.4375 2.625H11.8125C11.0889 2.625 10.5 3.21387 10.5 3.9375C10.5 4.66112 11.0889 5.25 11.8125 5.25ZM11.8125 3.5H14.4375C14.5535 3.5 14.6648 3.54609 14.7469 3.62814C14.8289 3.71019 14.875 3.82147 14.875 3.9375C14.875 4.05353 14.8289 4.16481 14.7469 4.24686C14.6648 4.32891 14.5535 4.375 14.4375 4.375H11.8125C11.6965 4.375 11.5852 4.32891 11.5031 4.24686C11.4211 4.16481 11.375 4.05353 11.375 3.9375C11.375 3.82147 11.4211 3.71019 11.5031 3.62814C11.5852 3.54609 11.6965 3.5 11.8125 3.5Z" fill="white"/>
</svg>
