<svg width="42" height="42" viewBox="0 0 42 42" fill="none" xmlns="http://www.w3.org/2000/svg">
<g clip-path="url(#clip0_2402_33011)">
<path d="M30.4615 12.2452C30.2095 12.0404 29.8228 11.9967 29.6478 12.0002C28.8585 12.0142 27.6458 12.4359 21.8148 14.8614C19.7708 15.7102 15.6898 17.4689 9.56827 20.1359C8.57427 20.5314 8.05278 20.9182 8.00553 21.2962C7.92549 21.935 8.72407 22.1865 9.81305 22.5296L9.81335 22.5297C9.96239 22.5767 10.1169 22.6253 10.2753 22.6769C11.348 23.0252 12.79 23.4329 13.539 23.4469C14.2198 23.4644 14.9775 23.1844 15.8175 22.6069C21.5365 18.7482 24.4888 16.7952 24.6743 16.7532C24.8055 16.7234 24.9875 16.6867 25.11 16.7952C25.2325 16.9037 25.2203 17.1102 25.208 17.1662C25.1281 17.5032 21.996 20.4158 20.3681 21.9297L20.368 21.9297C19.8574 22.4046 19.4947 22.7418 19.4208 22.8187C19.2568 22.9887 19.0897 23.1497 18.9291 23.3044C17.9323 24.2644 17.1834 24.9857 18.9693 26.1612C19.8282 26.7276 20.5153 27.1958 21.2012 27.663C21.9477 28.1716 22.6926 28.6791 23.6558 29.3112C23.9024 29.4727 24.1378 29.6404 24.3671 29.8039C25.2363 30.4233 26.017 30.9797 26.9808 30.8897C27.5425 30.8389 28.1218 30.3122 28.4158 28.7372C29.1123 25.0184 30.4808 16.9614 30.7958 13.6399C30.8238 13.3494 30.7888 12.9767 30.7608 12.8139C30.7358 12.5936 30.629 12.3906 30.4615 12.2452Z" fill="#6C6C6C"/>
</g>
<defs>
<clipPath id="clip0_2402_33011">
<rect width="42" height="42" rx="21" fill="white"/>
</clipPath>
</defs>
</svg>
