<svg width="42" height="42" viewBox="0 0 42 42" fill="none" xmlns="http://www.w3.org/2000/svg">
<g clip-path="url(#clip0_2402_33014)">
<path fill-rule="evenodd" clip-rule="evenodd" d="M14.7001 29.9668V35.4687L19.3123 30.7921C22.1158 30.8838 28.4825 30.6821 30.4359 29.1416C32.8777 27.2159 33.6916 25.8404 33.9629 20.8887C34.2192 16.2112 33.149 12.3608 30.7072 10.7102C28.7653 9.3975 26.6376 8.23432 20.9402 8.50942C15.2427 8.78451 12.2556 9.33474 10.3564 12.6359C8.45728 15.937 8.72794 22.5393 10.0879 25.5654C10.6935 26.9129 11.9856 28.8665 14.7001 29.9668ZM26.2291 15.6915C25.321 14.4916 23.8456 13.7135 21.967 14.0497C21.7448 14.0894 21.5328 13.939 21.4936 13.7136C21.4544 13.4883 21.6027 13.2734 21.825 13.2336C24.0328 12.8385 25.8025 13.7667 26.8775 15.1869C27.9404 16.5913 28.3415 18.5 27.8123 20.1097C27.7409 20.3268 27.5095 20.4441 27.2954 20.3718C27.0813 20.2994 26.9656 20.0648 27.037 19.8477C27.4693 18.5326 27.1493 16.9072 26.2291 15.6915ZM18.2886 22.1723C19.0972 23.1562 21.0041 24.8598 23.0961 26.072C24.7788 27.0469 25.9806 27.2907 26.7018 26.8032C27.4229 26.3158 27.9036 25.5845 28.144 25.0971C28.3844 24.6096 28.144 23.8785 27.1825 23.1473C26.221 22.4161 25.2595 21.6849 24.5384 21.9286C24.1103 22.0733 23.7669 22.4757 23.5082 22.7788C23.3311 22.9863 23.1938 23.1473 23.0961 23.1473C22.8557 23.1473 21.6539 22.9035 20.452 21.9285C19.3902 21.0672 18.2886 19.2474 18.7693 18.5163C18.961 18.2249 19.1649 18.0489 19.3543 17.8855C19.607 17.6674 19.8338 17.4717 19.9712 17.0538C20.043 16.8354 19.8828 16.4006 19.6433 15.9751C19.5008 15.7218 19.3207 15.4808 19.1579 15.263C19.1075 15.1957 19.0589 15.1306 19.0135 15.068L18.5624 14.4594C18.5057 14.373 18.4456 14.2851 18.381 14.1991C17.9759 13.6591 17.396 13.1943 16.3656 13.6417C15.1319 14.1772 14.4425 15.1041 14.9233 16.8102C15.3411 18.2923 17.0867 20.7099 18.2886 22.1723ZM22.1734 15.5167C24.5702 15.2958 26.2175 17.2547 25.591 19.3722C25.5261 19.5913 25.6488 19.8223 25.865 19.8881C26.0811 19.9538 26.3089 19.8295 26.3738 19.6103C27.1896 16.8531 24.9908 14.4249 22.0994 14.6914C21.8746 14.7121 21.709 14.9136 21.7294 15.1415C21.7498 15.3694 21.9486 15.5374 22.1734 15.5167ZM22.2085 16.8099C22.2085 16.5811 22.3914 16.3956 22.6171 16.3956C23.3 16.3956 23.8943 16.6049 24.3183 17.0348C24.7423 17.4648 24.9488 18.0673 24.9488 18.7598C24.9488 18.9886 24.7658 19.1741 24.5401 19.1741C24.3144 19.1741 24.1315 18.9886 24.1315 18.7598C24.1315 18.2335 23.9774 17.8611 23.7404 17.6208C23.5034 17.3805 23.1361 17.2243 22.6171 17.2243C22.3914 17.2243 22.2085 17.0388 22.2085 16.8099Z" fill="#6C6C6C"/>
</g>
<defs>
<clipPath id="clip0_2402_33014">
<rect width="42" height="42" rx="21" fill="white"/>
</clipPath>
</defs>
</svg>
